<svg version="1.1" id="Layer_1" xmlns="http://www.w3.org/2000/svg" xmlns:xlink="http://www.w3.org/1999/xlink" x="0px"
    y="0px" width="518" height="120" viewBox="0 0 518 120" fill="none" enable-background="new 0 0 299 267" xml:space="preserve">
    <path fill="#000000" opacity="1.000000" stroke="none" d="
M210.000000,268.000000
	C140.030701,268.000000 70.561409,268.000000 1.046057,268.000000
	C1.046057,179.070038 1.046057,90.140060 1.046057,1.105036
	C100.552513,1.105036 200.105179,1.105036 299.828918,1.105036
	C299.828918,89.999725 299.828918,178.999847 299.828918,268.000000
	C270.140228,268.000000 240.320114,268.000000 210.000000,268.000000
M136.991638,117.270721
	C136.359879,116.514763 135.728134,115.758804 135.092148,114.917244
	C135.092148,114.917244 135.006866,114.908836 134.972000,114.209412
	C134.315750,112.355904 133.659500,110.502388 133.778046,108.241402
	C136.037079,107.825119 138.280502,107.189766 140.557632,107.027428
	C157.764297,105.800850 174.187546,108.128014 189.108994,118.512405
	C189.393570,118.729630 189.678131,118.946854 190.215576,119.701797
	C191.087189,120.497040 191.958817,121.292282 193.175797,122.668015
	C198.100906,127.532982 202.340332,132.791702 203.368088,140.755463
	C206.254684,140.881592 209.141281,141.007721 212.516174,140.982239
	C212.679535,140.933640 212.842896,140.885056 213.497620,140.942719
	C213.661926,140.909729 213.826233,140.876755 214.786301,140.959824
	C219.468399,138.968964 224.150497,136.978104 228.690674,134.267349
	C227.088608,130.169998 225.486526,126.072647 223.890900,121.448029
	C223.608109,121.253830 223.325317,121.059631 223.052200,120.939522
	C223.052200,120.939522 223.123001,120.915680 222.812302,120.285606
	C220.243103,116.496025 217.673904,112.706444 214.911148,108.425133
	C214.615524,108.245857 214.319916,108.066582 214.042786,107.958183
	C214.042786,107.958183 214.101700,107.914635 213.822601,107.306763
	C210.266205,104.187340 206.709808,101.067917 202.805222,97.338745
	C198.556168,94.871582 194.307129,92.404427 189.874771,89.497177
	C189.679993,89.167450 189.403259,89.069893 188.566437,89.008682
	C188.395706,88.985916 188.224991,88.963150 187.650192,88.336082
	C177.509247,84.367012 167.256744,81.235031 156.103668,81.910622
	C149.145706,82.332092 142.140060,81.923431 135.157333,82.009727
	C133.402145,82.031418 131.652786,82.523827 129.943573,82.018143
	C131.792831,75.932846 133.509689,69.803406 135.520477,63.771961
	C139.087708,53.071980 143.189987,42.532555 146.261002,31.697115
	C147.058441,28.883480 144.865463,25.222294 143.718567,21.338415
	C140.802200,19.944347 137.885834,18.550280 134.199646,17.040033
	C128.122177,17.821352 124.658272,20.825985 122.791351,27.105047
	C117.315201,45.523182 111.108368,63.724064 105.017128,82.849777
	C104.694633,85.824509 104.372131,88.799248 103.334579,91.996628
	C90.727776,97.799568 81.055534,107.074448 73.201920,118.238174
	C66.684647,127.502335 61.321827,137.405441 60.020538,149.425995
	C60.020538,149.425995 59.996552,149.868317 59.365574,150.418808
	C57.941071,160.011169 57.088219,169.591110 60.001751,179.549789
	C60.001751,179.549789 60.160824,179.981934 60.054153,180.661484
	C60.365295,181.460358 60.676441,182.259216 61.005127,183.756531
	C61.391613,184.817963 61.778099,185.879410 62.050148,187.703033
	C63.071529,190.434875 63.858467,193.294174 65.237923,195.831329
	C65.739601,196.754059 67.745689,197.464508 68.901192,197.274307
	C70.377739,197.031235 71.688133,195.778793 73.503159,194.878616
	C73.503159,194.878616 73.886551,194.660995 74.377602,194.722977
	C74.711754,194.581879 74.908463,194.332428 75.654305,193.830261
	C75.863319,193.725342 76.072334,193.620438 76.555420,193.612640
	C76.752861,193.501740 76.826668,193.335648 77.360939,192.963730
	C77.830811,192.662155 78.300674,192.360580 79.301941,191.932236
	C79.461357,191.844193 79.620766,191.756165 80.333199,191.741501
	C80.569283,191.470306 80.805367,191.199112 81.433800,190.869308
	C81.433800,190.869308 81.777786,190.671692 82.330948,190.743073
	C82.564789,190.470886 82.798637,190.198685 83.432182,189.852814
	C83.432182,189.852814 83.785591,189.652100 84.330734,189.737106
	C84.558449,189.466660 84.786163,189.196213 85.370003,188.853699
	C85.370003,188.853699 85.666962,188.644333 86.376350,188.707031
	C87.967438,187.329269 91.047600,187.524521 89.874771,183.599396
	C87.761009,176.525223 86.452965,169.210327 84.974396,161.533936
	C84.974396,161.533936 85.070923,161.052536 85.720886,160.571030
	C85.752869,158.378983 85.784843,156.186920 85.926872,153.219223
	C85.964767,152.176117 86.002670,151.133011 86.820427,149.966660
	C88.638527,145.759995 90.014984,141.285538 92.368629,137.403580
	C96.965157,129.822403 102.610611,123.084496 111.062477,119.571426
	C111.352058,119.731041 111.641640,119.890656 111.991554,120.003899
	C111.991554,120.003899 111.942566,120.061646 112.011032,120.782982
	C114.876625,125.572739 117.340439,130.667099 120.692345,135.088165
	C127.448914,143.999924 134.611313,152.609497 141.753387,161.221741
	C147.543503,168.203735 153.425262,175.118866 159.503876,181.849121
	C163.284760,186.035355 168.732101,185.182205 172.959961,182.359940
	C177.806091,179.124954 178.969299,175.102310 176.978470,169.319229
	C176.669189,168.538330 176.359894,167.757431 175.934357,166.279434
	C163.640228,151.164871 151.346100,136.050308 138.998947,120.301193
	C138.367645,119.531883 137.736359,118.762566 137.101303,117.910522
	C137.101303,117.910522 137.019104,117.900459 136.991638,117.270721
z" />
    <path fill="#B12C2C" opacity="1.000000" stroke="none" d="
M176.050613,166.976532
	C176.359894,167.757431 176.669189,168.538330 176.727692,169.934219
	C175.984528,172.029617 175.492126,173.510040 174.687683,174.747681
	C170.888885,173.441620 166.139893,173.467590 164.125641,171.133530
	C153.221130,158.497665 142.998489,145.273666 132.528549,132.262268
	C129.827377,128.905426 127.081688,125.584396 124.356461,122.246918
	C123.968994,122.497597 123.581520,122.748283 123.194054,122.998962
	C125.050285,126.679314 126.906525,130.359665 128.762756,134.040009
	C128.343643,134.296021 127.924545,134.552032 127.505432,134.808029
	C126.223816,133.586960 124.959526,132.347015 123.656448,131.149292
	C121.775368,129.420303 119.866135,127.721916 117.715714,125.796402
	C115.622528,123.742104 113.782547,121.901871 111.942566,120.061646
	C111.942566,120.061646 111.991554,120.003899 111.978271,119.693695
	C111.637161,118.606735 111.309326,117.829987 110.739151,116.810814
	C109.685455,114.705872 108.874092,112.843361 108.049469,110.647224
	C107.725883,109.499573 107.415558,108.685539 107.089722,107.515167
	C107.043648,106.682129 107.013100,106.205429 107.068542,105.509850
	C107.429108,105.240303 107.705307,105.149658 107.977402,105.160645
	C108.072517,105.164482 108.141853,105.432243 108.249527,105.556458
	C109.672302,107.197937 111.099815,108.835304 112.526146,110.473694
	C112.657936,108.184944 112.962547,105.889549 112.874763,103.609253
	C112.779831,101.143341 111.738083,98.597549 112.118187,96.249947
	C113.700615,86.476486 114.972633,76.569725 117.651283,67.076653
	C121.474792,53.526241 126.430862,40.295406 131.058640,26.683846
	C131.788712,25.934059 132.363342,25.428509 133.301422,24.895071
	C135.201874,24.877234 137.032349,24.344572 138.225845,24.989937
	C143.819794,28.014772 143.757187,28.130562 144.046051,21.950403
	C144.865463,25.222294 147.058441,28.883480 146.261002,31.697115
	C143.189987,42.532555 139.087708,53.071980 135.520477,63.771961
	C133.509689,69.803406 131.792831,75.932846 129.614838,82.642654
	C128.942139,85.835075 128.598190,88.402992 128.149872,91.360970
	C128.069275,92.823341 128.093048,93.895660 128.052139,95.300606
	C128.033081,96.080650 128.078720,96.528069 128.049667,97.323746
	C127.901222,98.140541 127.827454,98.609070 127.417465,98.920609
	C126.856354,98.524979 126.545265,98.324379 126.420494,98.041573
	C125.576965,96.129654 124.772850,94.200340 123.955986,92.276657
	C123.315254,94.590630 122.558861,96.881630 122.092232,99.230194
	C121.912201,100.136284 122.170204,101.285446 122.602814,102.132835
	C126.490799,109.748596 129.556427,117.995590 134.595383,124.768822
	C145.465958,139.380768 157.357727,153.233322 168.846191,167.384796
	C170.126663,168.962067 171.501190,170.462982 173.279205,172.515442
	C174.486908,170.101730 175.268768,168.539139 176.050613,166.976532
z" />
    <path fill="#FCF02C" opacity="1.000000" stroke="none" d="
M85.666962,188.644333
	C85.666962,188.644333 85.370003,188.853699 84.937340,188.911667
	C84.264977,189.197113 84.025284,189.424606 83.785583,189.652100
	C83.785591,189.652100 83.432182,189.852814 82.972893,189.914062
	C82.268333,190.207443 82.023056,190.439560 81.777786,190.671692
	C81.777786,190.671692 81.433800,190.869308 80.977081,190.920929
	C80.273636,191.204407 80.026901,191.436279 79.780167,191.668152
	C79.620766,191.756165 79.461357,191.844193 78.718231,191.888199
	C76.763962,190.092789 74.923294,188.535538 74.105774,186.555801
	C70.894417,178.779007 68.005348,170.869110 64.997734,162.588150
	C65.997841,157.115402 66.996811,152.063156 68.327316,146.926300
	C71.288261,142.864212 74.062645,138.974014 76.519974,134.892899
	C83.951195,122.551140 92.938057,111.789024 106.099792,105.129066
	C106.204941,105.240295 106.218254,105.546127 106.119934,105.913116
	C104.683746,107.523262 103.345879,108.766426 101.703140,110.073784
	C100.931305,110.757431 100.464355,111.376884 99.708344,112.161804
	C96.278267,115.550606 93.137260,118.773941 89.653915,122.055054
	C88.393173,122.786942 87.233582,123.285095 86.593636,124.162331
	C80.094063,133.071732 75.895203,143.037003 75.160378,154.011078
	C74.602943,162.335907 75.810356,170.595947 82.194733,177.393967
	C83.358177,181.385132 84.512573,185.014725 85.666962,188.644333
z" />
    <path fill="#CC3537" opacity="1.000000" stroke="none" d="
M175.992493,166.627991
	C175.268768,168.539139 174.486908,170.101730 173.279205,172.515442
	C171.501190,170.462982 170.126663,168.962067 168.846191,167.384796
	C157.357727,153.233322 145.465958,139.380768 134.595383,124.768822
	C129.556427,117.995590 126.490799,109.748596 122.602814,102.132835
	C122.170204,101.285446 121.912201,100.136284 122.092232,99.230194
	C122.558861,96.881630 123.315254,94.590630 123.955986,92.276657
	C124.772850,94.200340 125.576965,96.129654 126.420494,98.041573
	C126.545265,98.324379 126.856354,98.524979 127.504517,98.897934
	C127.927788,99.032249 128.093536,98.962303 128.030975,99.225204
	C127.968552,99.668259 127.968704,99.848419 127.967384,100.432716
	C130.312897,105.527512 132.659882,110.218178 135.006866,114.908836
	C135.006866,114.908836 135.092148,114.917244 135.082794,115.298447
	C135.721985,116.419914 136.370544,117.160187 137.019104,117.900467
	C137.019104,117.900459 137.101303,117.910522 137.091827,118.293762
	C137.738892,119.429916 138.395432,120.182838 139.051987,120.935753
	C151.346100,136.050308 163.640228,151.164871 175.992493,166.627991
z" />
    <path fill="#F64341" opacity="1.000000" stroke="none" d="
M132.937988,24.922958
	C132.363342,25.428509 131.788712,25.934059 130.727386,26.797607
	C128.302017,32.214340 126.227539,37.225883 124.449760,42.340557
	C118.844360,58.467270 111.743484,74.152924 109.811836,91.386261
	C109.728409,92.130630 108.850098,92.785912 107.376305,94.807251
	C107.190353,91.257645 107.277618,89.178429 106.917961,87.179642
	C106.599533,85.409966 105.783882,83.729752 105.187729,82.010040
	C111.108368,63.724064 117.315201,45.523182 122.791351,27.105047
	C124.658272,20.825985 128.122177,17.821352 134.595139,17.483662
	C134.306412,20.259178 133.622208,22.591068 132.937988,24.922958
z" />
    <path fill="#F5F448" opacity="1.000000" stroke="none" d="
M60.192963,149.018692
	C61.321827,137.405441 66.684647,127.502335 73.201920,118.238174
	C81.055534,107.074448 90.727776,97.799568 104.005692,92.116325
	C104.770020,94.833946 104.863243,97.431877 104.592827,100.027557
	C103.306564,100.357338 102.300873,100.549965 101.474052,101.042732
	C92.339287,106.486862 84.546265,113.511505 78.861031,122.451851
	C74.715698,128.970612 71.558792,136.117920 67.627434,143.043274
	C64.926735,145.073898 62.559845,147.046295 60.192963,149.018692
z" />
    <path fill="#454CBC" opacity="1.000000" stroke="none" d="
M127.840736,99.054932
	C127.827454,98.609070 127.901222,98.140541 128.440979,97.254730
	C131.191971,96.496956 133.470657,96.105087 135.762939,95.823883
	C158.369003,93.050705 179.872116,95.710861 198.558685,109.895828
	C204.458862,114.374649 209.176361,120.380516 214.851471,125.196915
	C219.170578,128.862473 224.148041,131.752289 228.832596,134.987244
	C224.150497,136.978104 219.468399,138.968964 214.284576,140.792053
	C213.474945,140.483307 213.216080,140.554031 213.006256,140.836456
	C212.842896,140.885056 212.679535,140.933640 212.264801,140.621567
	C211.348816,136.858032 211.269882,133.201569 209.924164,130.093628
	C201.470825,110.570557 184.823792,102.002701 165.251434,98.122849
	C152.918701,95.678108 140.432404,96.517677 128.093536,98.962303
	C128.093536,98.962303 127.927788,99.032249 127.840736,99.054932
z" />
    <path fill="#4950C8" opacity="1.000000" stroke="none" d="
M228.761627,134.627289
	C224.148041,131.752289 219.170578,128.862473 214.851471,125.196915
	C209.176361,120.380516 204.458862,114.374649 198.558685,109.895828
	C179.872116,95.710861 158.369003,93.050705 135.762939,95.823883
	C133.470657,96.105087 131.191971,96.496956 128.515656,96.906471
	C128.078720,96.528069 128.033081,96.080650 128.456894,95.287415
	C133.007980,94.299896 137.068512,93.341599 141.174667,93.068016
	C167.373032,91.322456 191.022293,97.781624 211.524857,114.790634
	C214.818130,117.522743 219.228851,118.907867 223.123001,120.915680
	C223.123001,120.915680 223.052200,120.939522 223.147034,121.117546
	C223.394211,121.580627 223.608414,121.807198 223.884460,121.975296
	C225.486526,126.072647 227.088608,130.169998 228.761627,134.627289
z" />
    <path fill="#383B86" opacity="1.000000" stroke="none" d="
M192.830444,122.087524
	C191.958817,121.292282 191.087189,120.497040 189.956131,119.200142
	C189.422668,118.473221 189.148666,118.247948 188.874649,118.022675
	C174.187546,108.128014 157.764297,105.800850 140.557632,107.027428
	C138.280502,107.189766 136.037079,107.825119 133.091827,108.191177
	C131.557220,106.145279 130.708847,104.149597 130.267517,102.109581
	C131.765472,102.023308 132.856415,101.981377 134.285339,101.949005
	C135.416779,101.628731 136.210220,101.298889 137.398560,100.968719
	C138.846481,100.960121 139.899490,100.951836 141.423782,100.960999
	C146.945740,100.966873 151.996429,100.955299 157.415558,100.946617
	C158.520920,100.952423 159.257828,100.955338 160.257645,101.201538
	C161.696030,101.611755 162.871506,101.778694 164.371719,101.947884
	C165.129440,101.955368 165.562408,101.960609 166.266266,102.210938
	C173.032471,104.963234 179.527771,107.470444 186.265930,109.984482
	C186.508789,109.991318 186.994339,110.009888 187.054230,110.347458
	C189.201981,112.755493 191.296402,114.819397 193.375793,116.898331
	C195.321030,118.843140 195.423416,120.611275 192.830444,122.087524
z" />
    <path fill="#4146AB" opacity="1.000000" stroke="none" d="
M133.947342,101.939438
	C132.856415,101.981377 131.765472,102.023308 130.112396,101.851143
	C129.023102,101.100891 128.495972,100.564735 127.968849,100.028580
	C127.968704,99.848419 127.968552,99.668259 128.030975,99.225204
	C140.432404,96.517677 152.918701,95.678108 165.251434,98.122849
	C184.823792,102.002701 201.470825,110.570557 209.924164,130.093628
	C211.269882,133.201569 211.348816,136.858032 212.020660,140.697372
	C209.141281,141.007721 206.254684,140.881592 203.591553,140.275177
	C204.508774,138.061966 206.100739,136.119247 205.752808,134.629654
	C203.198959,123.695984 197.489975,114.980194 186.994339,110.009888
	C186.994339,110.009888 186.508789,109.991318 186.177063,109.652695
	C182.304565,107.402824 178.900208,105.140701 175.178864,103.694038
	C172.325043,102.584633 169.071274,102.504013 165.995392,101.965843
	C165.562408,101.960609 165.129440,101.955368 164.270996,101.636101
	C162.561935,101.200790 161.278336,101.079521 159.994736,100.958252
	C159.257828,100.955338 158.520920,100.952423 157.264771,100.584274
	C151.398010,98.647423 146.069717,97.494949 140.952515,100.943558
	C139.899490,100.951836 138.846481,100.960121 137.175049,100.762672
	C135.686890,101.017776 134.817123,101.478607 133.947342,101.939438
z" />
    <path fill="#8E2F2E" opacity="1.000000" stroke="none" d="
M111.976799,120.422318
	C113.782547,121.901871 115.622528,123.742104 117.781357,126.137207
	C118.304970,127.143822 118.425171,127.663788 118.726662,128.037506
	C131.526917,143.904404 144.284668,159.806717 157.264435,175.525665
	C158.351868,176.842590 160.908188,177.259583 162.850357,177.472992
	C164.948074,177.703430 167.167236,177.400665 169.257095,176.964661
	C171.223038,176.554520 173.089493,175.667603 174.999725,174.990448
	C175.492126,173.510040 175.984528,172.029617 176.680725,170.273972
	C178.969299,175.102310 177.806091,179.124954 172.959961,182.359940
	C168.732101,185.182205 163.284760,186.035355 159.503876,181.849121
	C153.425262,175.118866 147.543503,168.203735 141.753387,161.221741
	C134.611313,152.609497 127.448914,143.999924 120.692345,135.088165
	C117.340439,130.667099 114.876625,125.572739 111.976799,120.422318
z" />
    <path fill="#4E56D7" opacity="1.000000" stroke="none" d="
M222.967651,120.600647
	C219.228851,118.907867 214.818130,117.522743 211.524857,114.790634
	C191.022293,97.781624 167.373032,91.322456 141.174667,93.068016
	C137.068512,93.341599 133.007980,94.299896 128.521591,94.954788
	C128.093048,93.895660 128.069275,92.823341 128.333130,91.339676
	C128.620773,90.928329 128.989334,90.910034 129.175110,91.142380
	C129.903778,91.578049 130.446640,91.781364 131.428497,91.988907
	C137.578003,91.324913 143.288544,90.656700 149.359024,89.934143
	C151.140259,89.592712 152.561554,89.305626 154.121490,89.385422
	C155.272278,90.163887 156.277222,90.914818 157.297623,90.936409
	C174.083847,91.291748 189.315475,96.667374 203.834274,104.751480
	C206.894943,106.455658 210.660782,106.893372 214.101700,107.914635
	C214.101700,107.914635 214.042786,107.958183 214.174576,108.134193
	C214.572479,108.512421 214.838593,108.714645 215.104706,108.916870
	C217.673904,112.706444 220.243103,116.496025 222.967651,120.600647
z" />
    <path fill="#5E67F6" opacity="1.000000" stroke="none" d="
M128.989334,90.910034
	C128.989334,90.910034 128.620773,90.928329 128.437500,90.949615
	C128.598190,88.402992 128.942139,85.835075 129.593414,83.033539
	C131.652786,82.523827 133.402145,82.031418 135.157333,82.009727
	C142.140060,81.923431 149.145706,82.332092 156.103668,81.910622
	C167.256744,81.235031 177.509247,84.367012 187.388702,88.656570
	C172.754425,88.318016 158.384048,87.587723 144.005508,87.097305
	C142.355881,87.041031 140.660553,88.324310 138.655701,88.987717
	C137.883881,88.988808 137.442764,88.988670 136.753815,88.766479
	C135.332230,89.023575 134.158478,89.502724 132.653625,89.982193
	C131.880997,89.983055 131.439484,89.983589 130.810028,89.808266
	C130.077820,90.058273 129.533569,90.484154 128.989334,90.910034
z" />
    <path fill="#D53735" opacity="1.000000" stroke="none" d="
M104.956467,100.029800
	C104.863243,97.431877 104.770020,94.833946 104.363220,92.005005
	C104.372131,88.799248 104.694633,85.824509 105.102432,82.429909
	C105.783882,83.729752 106.599533,85.409966 106.917961,87.179642
	C107.277618,89.178429 107.190353,91.257645 107.376305,94.807251
	C108.850098,92.785912 109.728409,92.130630 109.811836,91.386261
	C111.743484,74.152924 118.844360,58.467270 124.449760,42.340557
	C126.227539,37.225883 128.302017,32.214340 130.571960,27.041842
	C126.430862,40.295406 121.474792,53.526241 117.651283,67.076653
	C114.972633,76.569725 113.700615,86.476486 112.118187,96.249947
	C111.738083,98.597549 112.779831,101.143341 112.874763,103.609253
	C112.962547,105.889549 112.657936,108.184944 112.526146,110.473694
	C111.099815,108.835304 109.672302,107.197937 108.249527,105.556458
	C108.141853,105.432243 108.072517,105.164482 107.977402,105.160645
	C107.705307,105.149658 107.429108,105.240303 106.876289,105.471039
	C106.598053,105.651108 106.218254,105.546127 106.218254,105.546127
	C106.218254,105.546127 106.204941,105.240295 106.102219,104.755417
	C105.651825,102.856956 105.304146,101.443375 104.956467,100.029800
z" />
    <path fill="#CCC42D" opacity="1.000000" stroke="none" d="
M107.105232,107.871506
	C107.415558,108.685539 107.725883,109.499573 107.965424,110.982742
	C104.572601,115.288803 101.179199,118.863525 97.943260,122.575516
	C91.061722,130.469452 85.871552,139.129852 86.040573,150.089905
	C86.002670,151.133011 85.964767,152.176117 85.653259,153.931519
	C85.276733,156.780045 85.173828,158.916290 85.070923,161.052536
	C85.070923,161.052536 84.974396,161.533936 84.705978,161.987793
	C84.266449,162.988312 84.095329,163.534988 83.578506,163.928574
	C82.527237,160.470352 81.023643,157.109436 81.250107,153.869461
	C82.417389,137.169220 89.556168,123.522293 102.993988,113.251640
	C104.724304,111.929146 105.752045,109.687416 107.105232,107.871506
z" />
    <path fill="#5660EE" opacity="1.000000" stroke="none" d="
M138.986420,88.986496
	C140.660553,88.324310 142.355881,87.041031 144.005508,87.097305
	C158.384048,87.587723 172.754425,88.318016 187.590744,88.958725
	C188.224991,88.963150 188.395706,88.985916 188.945740,89.265419
	C189.543869,89.705574 189.788223,89.843941 190.058075,89.937263
	C194.307129,92.404427 198.556168,94.871582 202.543976,97.657188
	C199.857376,97.600899 197.350998,97.498901 195.020020,96.806412
	C181.598404,92.819107 168.351349,87.995201 153.982834,89.018532
	C152.561554,89.305626 151.140259,89.592712 149.039139,89.687592
	C145.235001,89.325752 142.110718,89.156128 138.986420,88.986496
z" />
    <path fill="#ACA32D" opacity="1.000000" stroke="none" d="
M86.430496,150.028290
	C85.871552,139.129852 91.061722,130.469452 97.943260,122.575516
	C101.179199,118.863525 104.572601,115.288803 107.978683,111.316360
	C108.874092,112.843361 109.685455,114.705872 110.740494,117.152618
	C110.944283,118.190170 110.904388,118.643509 110.864502,119.096840
	C102.610611,123.084496 96.965157,129.822403 92.368629,137.403580
	C90.014984,141.285538 88.638527,145.759995 86.430496,150.028290
z" />
    <path fill="#525BE5" opacity="1.000000" stroke="none" d="
M154.121490,89.385422
	C168.351349,87.995201 181.598404,92.819107 195.020020,96.806412
	C197.350998,97.498901 199.857376,97.600899 202.718079,97.962067
	C206.709808,101.067917 210.266205,104.187340 213.962158,107.610703
	C210.660782,106.893372 206.894943,106.455658 203.834274,104.751480
	C189.315475,96.667374 174.083847,91.291748 157.297623,90.936409
	C156.277222,90.914818 155.272278,90.163887 154.121490,89.385422
z" />
    <path fill="#F0E52C" opacity="1.000000" stroke="none" d="
M64.996597,163.008636
	C68.005348,170.869110 70.894417,178.779007 74.105774,186.555801
	C74.923294,188.535538 76.763962,190.092789 78.452530,191.951584
	C78.300674,192.360580 77.830811,192.662155 76.947815,193.045044
	C76.534691,193.126358 76.281342,193.515549 76.281342,193.515549
	C76.072334,193.620438 75.863319,193.725342 75.086273,193.835815
	C74.518234,193.841385 74.062195,193.734436 74.026459,193.377533
	C70.688339,186.907150 67.496590,180.728989 63.993179,174.732956
	C63.264782,173.486313 61.381756,172.914307 60.005444,171.592468
	C59.961494,169.119614 59.942959,167.085648 60.266212,164.989120
	C62.070866,164.287247 63.533730,163.647949 64.996597,163.008636
z" />
    <path fill="#3B3F95" opacity="1.000000" stroke="none" d="
M187.054230,110.347458
	C197.489975,114.980194 203.198959,123.695984 205.752808,134.629654
	C206.100739,136.119247 204.508774,138.061966 203.478928,139.909515
	C202.340332,132.791702 198.100906,127.532982 193.003113,122.377762
	C195.423416,120.611275 195.321030,118.843140 193.375793,116.898331
	C191.296402,114.819397 189.201981,112.755493 187.054230,110.347458
z" />
    <path fill="#FBED3B" opacity="1.000000" stroke="none" d="
M64.997734,162.588135
	C63.533730,163.647949 62.070866,164.287247 60.256893,164.516663
	C59.936039,159.360626 59.966293,154.614471 59.996552,149.868317
	C59.996552,149.868317 60.020538,149.425995 60.106750,149.222351
	C62.559845,147.046295 64.926735,145.073898 67.638245,143.445984
	C67.987167,144.863953 67.991470,145.937424 67.995773,147.010910
	C66.996811,152.063156 65.997841,157.115402 64.997734,162.588135
z" />
    <path fill="#CECD4D" opacity="1.000000" stroke="none" d="
M83.924210,164.081665
	C84.095329,163.534988 84.266449,162.988312 84.622971,162.218811
	C86.452965,169.210327 87.761009,176.525223 89.874771,183.599396
	C91.047600,187.524521 87.967438,187.329269 86.021652,188.675690
	C84.512573,185.014725 83.358177,181.385132 82.405296,177.119415
	C82.772270,175.337646 82.937737,174.192001 83.337433,172.719986
	C83.689171,169.622971 83.806686,166.852310 83.924210,164.081665
z" />
    <path fill="#E4D92B" opacity="1.000000" stroke="none" d="
M60.030853,172.031372
	C61.381756,172.914307 63.264782,173.486313 63.993179,174.732956
	C67.496590,180.728989 70.688339,186.907150 73.969406,193.607635
	C73.948082,194.194626 73.886551,194.660995 73.886551,194.660995
	C73.886551,194.660995 73.503159,194.878616 73.044876,194.869644
	C72.586586,194.860672 72.097115,194.805969 71.997650,194.478882
	C70.988159,192.573944 70.185249,190.921402 69.147232,189.432816
	C66.463181,185.583694 63.675407,181.806915 60.881542,177.626373
	C60.566303,175.511459 60.298576,173.771408 60.030853,172.031372
z" />
    <path fill="#D53735" opacity="1.000000" stroke="none" d="
M133.301422,24.895071
	C133.622208,22.591068 134.306412,20.259178 134.980042,17.541750
	C137.885834,18.550280 140.802200,19.944347 143.882309,21.644409
	C143.757187,28.130562 143.819794,28.014772 138.225845,24.989937
	C137.032349,24.344572 135.201874,24.877234 133.301422,24.895071
z" />
    <path fill="#D8C83A" opacity="1.000000" stroke="none" d="
M60.929058,178.001236
	C63.675407,181.806915 66.463181,185.583694 69.147232,189.432816
	C70.185249,190.921402 70.988159,192.573944 71.642433,194.492020
	C69.818573,193.267990 68.328323,191.613815 66.658203,190.167313
	C65.270111,188.965073 63.670502,188.007050 62.164585,186.940842
	C61.778099,185.879410 61.391613,184.817963 61.005585,183.076813
	C60.724300,181.592026 60.442562,180.786987 60.160824,179.981934
	C60.160824,179.981934 60.001751,179.549789 60.117966,179.109375
	C60.418968,178.397644 60.650593,178.175064 60.929058,178.001236
z" />
    <path fill="#C4B543" opacity="1.000000" stroke="none" d="
M62.107368,187.321930
	C63.670502,188.007050 65.270111,188.965073 66.658203,190.167313
	C68.328323,191.613815 69.818573,193.267990 71.741898,194.819122
	C72.097115,194.805969 72.586586,194.860672 72.828369,194.911026
	C71.688133,195.778793 70.377739,197.031235 68.901192,197.274307
	C67.745689,197.464508 65.739601,196.754059 65.237923,195.831329
	C63.858467,193.294174 63.071529,190.434875 62.107368,187.321930
z" />
    <path fill="#CECD4D" opacity="1.000000" stroke="none" d="
M60.881542,177.626373
	C60.650593,178.175064 60.418968,178.397644 60.111511,178.879211
	C57.088219,169.591110 57.941071,160.011169 59.681061,150.143555
	C59.966293,154.614471 59.936039,159.360626 59.915100,164.579239
	C59.942959,167.085648 59.961494,169.119614 60.005444,171.592468
	C60.298576,173.771408 60.566303,175.511459 60.881542,177.626373
z" />
    <path fill="#B12C2C" opacity="1.000000" stroke="none" d="
M127.967384,100.432716
	C128.495972,100.564735 129.023102,101.100891 129.705353,101.895477
	C130.708847,104.149597 131.557220,106.145279 132.704422,108.394920
	C133.659500,110.502388 134.315750,112.355904 134.989441,114.559128
	C132.659882,110.218178 130.312897,105.527512 127.967384,100.432716
z" />
    <path fill="#ACA32D" opacity="1.000000" stroke="none" d="
M85.395905,160.811783
	C85.173828,158.916290 85.276733,156.780045 85.598236,154.319336
	C85.784843,156.186920 85.752869,158.378983 85.395905,160.811783
z" />
    <path fill="#B12C2C" opacity="1.000000" stroke="none" d="
M139.025467,120.618469
	C138.395432,120.182838 137.738892,119.429916 137.093689,118.335129
	C137.736359,118.762566 138.367645,119.531883 139.025467,120.618469
z" />
    <path fill="#B12C2C" opacity="1.000000" stroke="none" d="
M137.005371,117.585594
	C136.370544,117.160187 135.721985,116.419914 135.084900,115.341248
	C135.728134,115.758804 136.359879,116.514763 137.005371,117.585594
z" />
    <path fill="#8E2F2E" opacity="1.000000" stroke="none" d="
M110.963486,119.334137
	C110.904388,118.643509 110.944283,118.190170 110.982834,117.395035
	C111.309326,117.829987 111.637161,118.606735 111.948105,119.716873
	C111.641640,119.890656 111.352058,119.731041 110.963486,119.334137
z" />
    <path fill="#CECD4D" opacity="1.000000" stroke="none" d="
M60.107491,180.321716
	C60.442562,180.786987 60.724300,181.592026 60.996811,182.727585
	C60.676441,182.259216 60.365295,181.460358 60.107491,180.321716
z" />
    <path fill="#CECD4D" opacity="1.000000" stroke="none" d="
M80.056686,191.704834
	C80.026901,191.436279 80.273636,191.204407 80.780907,190.950226
	C80.805367,191.199112 80.569283,191.470306 80.056686,191.704834
z" />
    <path fill="#CECD4D" opacity="1.000000" stroke="none" d="
M82.054367,190.707382
	C82.023056,190.439560 82.268333,190.207443 82.773041,189.950897
	C82.798637,190.198685 82.564789,190.470886 82.054367,190.707382
z" />
    <path fill="#E4D92B" opacity="1.000000" stroke="none" d="
M76.418381,193.564087
	C76.281342,193.515549 76.534691,193.126358 76.655762,193.120361
	C76.826668,193.335648 76.752861,193.501740 76.418381,193.564087
z" />
    <path fill="#CECD4D" opacity="1.000000" stroke="none" d="
M84.058159,189.694611
	C84.025284,189.424606 84.264977,189.197113 84.759277,188.947693
	C84.786163,189.196213 84.558449,189.466660 84.058159,189.694611
z" />
    <path fill="#D8C83A" opacity="1.000000" stroke="none" d="
M74.132080,194.691986
	C73.886551,194.660995 73.948082,194.194626 74.005142,193.964539
	C74.062195,193.734436 74.518234,193.841385 74.742981,193.908020
	C74.908463,194.332428 74.711754,194.581879 74.132080,194.691986
z" />
    <path fill="#4146AB" opacity="1.000000" stroke="none" d="
M213.251938,140.889587
	C213.216080,140.554031 213.474945,140.483307 213.886688,140.734039
	C213.826233,140.876755 213.661926,140.909729 213.251938,140.889587
z" />
    <path fill="#4E56D7" opacity="1.000000" stroke="none" d="
M223.887680,121.711655
	C223.608414,121.807198 223.394211,121.580627 223.142181,121.080505
	C223.325317,121.059631 223.608109,121.253830 223.887680,121.711655
z" />
    <path fill="#3B3F95" opacity="1.000000" stroke="none" d="
M188.991821,118.267540
	C189.148666,118.247948 189.422668,118.473221 189.829697,118.931290
	C189.678131,118.946854 189.393570,118.729630 188.991821,118.267540
z" />
    <path fill="#525BE5" opacity="1.000000" stroke="none" d="
M215.007935,108.671005
	C214.838593,108.714645 214.572479,108.512421 214.165329,108.098755
	C214.319916,108.066582 214.615524,108.245857 215.007935,108.671005
z" />
    <path fill="#5E67F6" opacity="1.000000" stroke="none" d="
M189.966431,89.717224
	C189.788223,89.843941 189.543869,89.705574 189.184799,89.363327
	C189.403259,89.069893 189.679993,89.167450 189.966431,89.717224
z" />
    <path fill="#AE2928" opacity="1.000000" stroke="none" d="
M174.687683,174.747681
	C173.089493,175.667603 171.223038,176.554520 169.257095,176.964661
	C167.167236,177.400665 164.948074,177.703430 162.850357,177.472992
	C160.908188,177.259583 158.351868,176.842590 157.264435,175.525665
	C144.284668,159.806717 131.526917,143.904404 118.726662,128.037506
	C118.425171,127.663788 118.304970,127.143822 118.034561,126.351273
	C119.866135,127.721916 121.775368,129.420303 123.656448,131.149292
	C124.959526,132.347015 126.223816,133.586960 127.505432,134.808029
	C127.924545,134.552032 128.343643,134.296021 128.762756,134.040009
	C126.906525,130.359665 125.050285,126.679314 123.194054,122.998962
	C123.581520,122.748283 123.968994,122.497597 124.356461,122.246918
	C127.081688,125.584396 129.827377,128.905426 132.528549,132.262268
	C142.998489,145.273666 153.221130,158.497665 164.125641,171.133530
	C166.139893,173.467590 170.888885,173.441620 174.687683,174.747681
z" />
    <path fill="#E4D92B" opacity="1.000000" stroke="none" d="
M83.578506,163.928574
	C83.806686,166.852310 83.689171,169.622971 83.059753,172.481110
	C77.847183,163.691971 76.491211,154.230469 79.740685,144.806015
	C82.446785,136.957458 86.525505,129.582184 89.996254,121.997276
	C93.137260,118.773941 96.278267,115.550606 100.012535,112.096405
	C101.073204,111.246895 101.540611,110.628242 102.008011,110.009583
	C103.345879,108.766426 104.683746,107.523262 106.119934,105.913116
	C106.218254,105.546127 106.598053,105.651108 106.790298,105.689911
	C107.013100,106.205429 107.043648,106.682129 107.089722,107.515167
	C105.752045,109.687416 104.724304,111.929146 102.993988,113.251640
	C89.556168,123.522293 82.417389,137.169220 81.250107,153.869461
	C81.023643,157.109436 82.527237,160.470352 83.578506,163.928574
z" />
    <path fill="#FFFC30" opacity="1.000000" stroke="none" d="
M68.327309,146.926300
	C67.991470,145.937424 67.987167,144.863953 67.972046,143.387741
	C71.558792,136.117920 74.715698,128.970612 78.861031,122.451851
	C84.546265,113.511505 92.339287,106.486862 101.474052,101.042732
	C102.300873,100.549965 103.306564,100.357338 104.592819,100.027557
	C105.304146,101.443375 105.651825,102.856956 105.997070,104.644180
	C92.938057,111.789024 83.951195,122.551140 76.519974,134.892899
	C74.062645,138.974014 71.288261,142.864212 68.327309,146.926300
z" />
    <path fill="#F0E52C" opacity="1.000000" stroke="none" d="
M89.653915,122.055054
	C86.525505,129.582184 82.446785,136.957458 79.740685,144.806015
	C76.491211,154.230469 77.847183,163.691971 82.825523,172.807465
	C82.937737,174.192001 82.772270,175.337646 82.396240,176.757843
	C75.810356,170.595947 74.602943,162.335907 75.160378,154.011078
	C75.895203,143.037003 80.094063,133.071732 86.593636,124.162331
	C87.233582,123.285095 88.393173,122.786942 89.653915,122.055054
z" />
    <path fill="#F0E52C" opacity="1.000000" stroke="none" d="
M101.703133,110.073776
	C101.540611,110.628242 101.073204,111.246895 100.301605,111.930939
	C100.464355,111.376884 100.931305,110.757431 101.703133,110.073776
z" />
    <path fill="#3B3F95" opacity="1.000000" stroke="none" d="
M166.266266,102.210938
	C169.071274,102.504013 172.325043,102.584633 175.178864,103.694038
	C178.900208,105.140701 182.304565,107.402824 185.934204,109.645859
	C179.527771,107.470444 173.032471,104.963234 166.266266,102.210938
z" />
    <path fill="#3B3F95" opacity="1.000000" stroke="none" d="
M141.423782,100.960999
	C146.069717,97.494949 151.398010,98.647423 156.896317,100.581390
	C151.996429,100.955299 146.945740,100.966873 141.423782,100.960999
z" />
    <path fill="#3B3F95" opacity="1.000000" stroke="none" d="
M160.257645,101.201530
	C161.278336,101.079521 162.561935,101.200790 163.946259,101.633850
	C162.871506,101.778694 161.696030,101.611755 160.257645,101.201530
z" />
    <path fill="#3B3F95" opacity="1.000000" stroke="none" d="
M134.285339,101.949013
	C134.817123,101.478607 135.686890,101.017776 136.780151,100.762993
	C136.210220,101.298889 135.416779,101.628731 134.285339,101.949013
z" />
    <path fill="#525BE5" opacity="1.000000" stroke="none" d="
M138.655701,88.987717
	C142.110718,89.156128 145.235001,89.325752 148.679184,89.741928
	C143.288544,90.656700 137.578003,91.324913 131.430710,91.655792
	C130.995285,90.873680 130.996643,90.428902 130.997986,89.984131
	C131.439484,89.983589 131.880997,89.983055 133.015640,89.986588
	C134.806412,89.656624 135.904037,89.322578 137.001663,88.988541
	C137.442764,88.988670 137.883881,88.988808 138.655701,88.987717
z" />
    <path fill="#5660EE" opacity="1.000000" stroke="none" d="
M130.810028,89.808266
	C130.996643,90.428902 130.995285,90.873680 130.991730,91.651566
	C130.446640,91.781364 129.903778,91.578049 129.175110,91.142380
	C129.533569,90.484154 130.077820,90.058273 130.810028,89.808266
z" />
    <path fill="#5660EE" opacity="1.000000" stroke="none" d="
M136.753815,88.766479
	C135.904037,89.322578 134.806412,89.656624 133.346771,89.986267
	C134.158478,89.502724 135.332230,89.023575 136.753815,88.766479
z" />
</svg>
